<?xml version="1.0" encoding="UTF-8" standalone="no"?>
<!DOCTYPE svg PUBLIC "-//W3C//DTD SVG 1.1//EN"
 "http://www.w3.org/Graphics/SVG/1.1/DTD/svg11.dtd">
<!-- Generated by graphviz version 2.43.0 (0)
 -->
<!-- Title: %3 Pages: 1 -->
<svg width="856pt" height="355pt"
 viewBox="0.00 0.00 855.75 355.00" xmlns="http://www.w3.org/2000/svg" xmlns:xlink="http://www.w3.org/1999/xlink">
<g id="graph0" class="graph" transform="scale(1 1) rotate(0) translate(4 351)">
<title>%3</title>
<polygon fill="#333333" stroke="transparent" points="-4,4 -4,-351 851.75,-351 851.75,4 -4,4"/>
<text text-anchor="middle" x="423.88" y="-9.2" font-family="Times,serif" font-size="16.00" fill="white">Network Map</text>
<!-- R6 -->
<g id="node1" class="node">
<title>R6</title>
<polygon fill="#006699" stroke="#006699" points="557.25,-223 480.25,-223 480.25,-150 557.25,-150 557.25,-223"/>
<text text-anchor="middle" x="518.75" y="-182.8" font-family="Helvetica,sans-Serif" font-size="14.00" fill="white">R6</text>
</g>
<!-- R2 -->
<g id="node2" class="node">
<title>R2</title>
<polygon fill="#006699" stroke="#006699" points="127.25,-223 50.25,-223 50.25,-150 127.25,-150 127.25,-223"/>
<text text-anchor="middle" x="88.75" y="-182.8" font-family="Helvetica,sans-Serif" font-size="14.00" fill="white">R2</text>
</g>
<!-- SW1 -->
<g id="node5" class="node">
<title>SW1</title>
<polygon fill="#006699" stroke="#006699" points="440.75,-99 350.75,-99 350.75,-26 440.75,-26 440.75,-99"/>
<text text-anchor="middle" x="395.75" y="-58.8" font-family="Helvetica,sans-Serif" font-size="14.00" fill="white">SW1</text>
</g>
<!-- R2&#45;&#45;SW1 -->
<g id="edge6" class="edge">
<title>R2&#45;&#45;SW1</title>
<path fill="none" stroke="green" stroke-dasharray="5,2" d="M122.11,-149.73C135.01,-137.74 150.56,-125.33 166.75,-117 225.93,-86.56 302.59,-73.19 350.47,-67.5"/>
<text text-anchor="middle" x="216.75" y="-120.8" font-family="Courier,monospace" font-size="14.00" fill="white"> &#160;&#160;&#160;&#160;&#160;&#160;&#160;&#160;&#160;&#160;&#160;</text>
<text text-anchor="middle" x="325.47" y="-56.3" font-family="Courier,monospace" font-size="14.00" fill="white">Eth0/2</text>
<text text-anchor="middle" x="97.11" y="-138.53" font-family="Courier,monospace" font-size="14.00" fill="white">Eth0/0</text>
</g>
<!-- SW2 -->
<g id="node6" class="node">
<title>SW2</title>
<polygon fill="#006699" stroke="#006699" points="133.75,-347 43.75,-347 43.75,-274 133.75,-274 133.75,-347"/>
<text text-anchor="middle" x="88.75" y="-306.8" font-family="Helvetica,sans-Serif" font-size="14.00" fill="white">SW2</text>
</g>
<!-- R2&#45;&#45;SW2 -->
<g id="edge7" class="edge">
<title>R2&#45;&#45;SW2</title>
<path fill="none" stroke="green" stroke-dasharray="5,2" d="M88.75,-223.12C88.75,-239.01 88.75,-257.7 88.75,-273.63"/>
<text text-anchor="middle" x="138.75" y="-244.8" font-family="Courier,monospace" font-size="14.00" fill="white"> &#160;&#160;&#160;&#160;&#160;&#160;&#160;&#160;&#160;&#160;&#160;</text>
<text text-anchor="middle" x="59.75" y="-262.43" font-family="Courier,monospace" font-size="14.00" fill="white">Eth0/11</text>
<text text-anchor="middle" x="63.75" y="-226.92" font-family="Courier,monospace" font-size="14.00" fill="white">Eth0/1</text>
</g>
<!-- R1 -->
<g id="node3" class="node">
<title>R1</title>
<polygon fill="#006699" stroke="#006699" points="372.25,-223 295.25,-223 295.25,-150 372.25,-150 372.25,-223"/>
<text text-anchor="middle" x="333.75" y="-182.8" font-family="Helvetica,sans-Serif" font-size="14.00" fill="white">R1</text>
</g>
<!-- R1&#45;&#45;SW1 -->
<g id="edge5" class="edge">
<title>R1&#45;&#45;SW1</title>
<path fill="none" stroke="green" stroke-dasharray="5,2" d="M362.99,-149.72C366.93,-143.99 370.67,-137.98 373.75,-132 379.02,-121.79 383.34,-110.07 386.72,-99.25"/>
<text text-anchor="middle" x="430.75" y="-120.8" font-family="Courier,monospace" font-size="14.00" fill="white"> &#160;&#160;&#160;&#160;&#160;&#160;&#160;&#160;&#160;&#160;&#160;</text>
<text text-anchor="middle" x="361.72" y="-103.05" font-family="Courier,monospace" font-size="14.00" fill="white">Eth0/1</text>
<text text-anchor="middle" x="337.99" y="-138.52" font-family="Courier,monospace" font-size="14.00" fill="white">Eth0/0</text>
</g>
<!-- R4 -->
<g id="node4" class="node">
<title>R4</title>
<polygon fill="#006699" stroke="#006699" points="679.25,-347 602.25,-347 602.25,-274 679.25,-274 679.25,-347"/>
<text text-anchor="middle" x="640.75" y="-306.8" font-family="Helvetica,sans-Serif" font-size="14.00" fill="white">R4</text>
</g>
<!-- SW1&#45;&#45;R6 -->
<g id="edge4" class="edge">
<title>SW1&#45;&#45;R6</title>
<path fill="none" stroke="green" stroke-dasharray="5,2" d="M441,-84.13C456.27,-92.69 472.53,-103.75 484.75,-117 493.39,-126.37 500.34,-138.34 505.64,-149.65"/>
<text text-anchor="middle" x="546.75" y="-120.8" font-family="Courier,monospace" font-size="14.00" fill="white"> &#160;&#160;&#160;&#160;&#160;&#160;&#160;&#160;&#160;&#160;&#160;</text>
<text text-anchor="middle" x="480.64" y="-138.45" font-family="Courier,monospace" font-size="14.00" fill="white">Eth0/1</text>
<text text-anchor="middle" x="466" y="-72.93" font-family="Courier,monospace" font-size="14.00" fill="white">Eth0/5</text>
</g>
<!-- SW1&#45;&#45;R2 -->
<g id="edge2" class="edge">
<title>SW1&#45;&#45;R2</title>
<path fill="none" stroke="green" stroke-dasharray="5,2" d="M350.72,-63.06C261.88,-63.24 69.04,-69.27 27.75,-117 14,-132.9 30.65,-150.61 50,-164.04"/>
<text text-anchor="middle" x="77.75" y="-120.8" font-family="Courier,monospace" font-size="14.00" fill="white"> &#160;&#160;&#160;&#160;&#160;&#160;&#160;&#160;&#160;&#160;&#160;</text>
<text text-anchor="middle" x="25" y="-152.84" font-family="Courier,monospace" font-size="14.00" fill="white">Eth0/0</text>
<text text-anchor="middle" x="325.72" y="-66.86" font-family="Courier,monospace" font-size="14.00" fill="white">Eth0/2</text>
</g>
<!-- SW1&#45;&#45;R1 -->
<g id="edge1" class="edge">
<title>SW1&#45;&#45;R1</title>
<path fill="none" stroke="green" stroke-dasharray="5,2" d="M350.59,-70.69C323.33,-77.61 290.7,-91.06 273.75,-117 262.77,-133.81 277.45,-150.8 295.03,-163.65"/>
<text text-anchor="middle" x="323.75" y="-120.8" font-family="Courier,monospace" font-size="14.00" fill="white"> &#160;&#160;&#160;&#160;&#160;&#160;&#160;&#160;&#160;&#160;&#160;</text>
<text text-anchor="middle" x="270.03" y="-152.45" font-family="Courier,monospace" font-size="14.00" fill="white">Eth0/0</text>
<text text-anchor="middle" x="325.59" y="-74.49" font-family="Courier,monospace" font-size="14.00" fill="white">Eth0/1</text>
</g>
<!-- R3 -->
<g id="node8" class="node">
<title>R3</title>
<polygon fill="#006699" stroke="#006699" points="741.25,-223 664.25,-223 664.25,-150 741.25,-150 741.25,-223"/>
<text text-anchor="middle" x="702.75" y="-182.8" font-family="Helvetica,sans-Serif" font-size="14.00" fill="white">R3</text>
</g>
<!-- SW1&#45;&#45;R3 -->
<g id="edge3" class="edge">
<title>SW1&#45;&#45;R3</title>
<path fill="none" stroke="green" stroke-dasharray="5,2" d="M440.8,-70.75C483.34,-78.62 548.27,-93.35 600.75,-117 622.92,-126.99 645.57,-141.67 663.88,-154.87"/>
<text text-anchor="middle" x="676.75" y="-120.8" font-family="Courier,monospace" font-size="14.00" fill="white"> &#160;&#160;&#160;&#160;&#160;&#160;&#160;&#160;&#160;&#160;&#160;</text>
<text text-anchor="middle" x="638.88" y="-143.67" font-family="Courier,monospace" font-size="14.00" fill="white">Eth0/0</text>
<text text-anchor="middle" x="465.8" y="-59.55" font-family="Courier,monospace" font-size="14.00" fill="white">Eth0/3</text>
</g>
<!-- R5 -->
<g id="node7" class="node">
<title>R5</title>
<polygon fill="#006699" stroke="#006699" points="802.25,-347 725.25,-347 725.25,-274 802.25,-274 802.25,-347"/>
<text text-anchor="middle" x="763.75" y="-306.8" font-family="Helvetica,sans-Serif" font-size="14.00" fill="white">R5</text>
</g>
<!-- R3&#45;&#45;R4 -->
<g id="edge9" class="edge">
<title>R3&#45;&#45;R4</title>
<path fill="none" stroke="green" stroke-dasharray="5,2" d="M663.97,-210.27C653.5,-218.51 643.49,-228.84 637.75,-241 633.02,-251.01 632.13,-262.79 632.9,-273.73"/>
<text text-anchor="middle" x="687.75" y="-244.8" font-family="Courier,monospace" font-size="14.00" fill="white"> &#160;&#160;&#160;&#160;&#160;&#160;&#160;&#160;&#160;&#160;&#160;</text>
<text text-anchor="middle" x="607.9" y="-262.53" font-family="Courier,monospace" font-size="14.00" fill="white">Eth0/0</text>
<text text-anchor="middle" x="638.97" y="-199.07" font-family="Courier,monospace" font-size="14.00" fill="white">Eth0/1</text>
</g>
<!-- R3&#45;&#45;SW1 -->
<g id="edge8" class="edge">
<title>R3&#45;&#45;SW1</title>
<path fill="none" stroke="green" stroke-dasharray="5,2" d="M731.27,-149.67C736.82,-138.36 738.75,-126.38 730.75,-117 694.01,-73.93 523.52,-65.38 440.89,-63.79"/>
<text text-anchor="middle" x="785.75" y="-120.8" font-family="Courier,monospace" font-size="14.00" fill="white"> &#160;&#160;&#160;&#160;&#160;&#160;&#160;&#160;&#160;&#160;&#160;</text>
<text text-anchor="middle" x="465.89" y="-52.59" font-family="Courier,monospace" font-size="14.00" fill="white">Eth0/3</text>
<text text-anchor="middle" x="706.27" y="-138.47" font-family="Courier,monospace" font-size="14.00" fill="white">Eth0/0</text>
</g>
<!-- R3&#45;&#45;R5 -->
<g id="edge10" class="edge">
<title>R3&#45;&#45;R5</title>
<path fill="none" stroke="green" stroke-dasharray="5,2" d="M731.03,-223.05C734.95,-228.85 738.68,-234.95 741.75,-241 746.96,-251.24 751.26,-262.97 754.64,-273.79"/>
<text text-anchor="middle" x="797.75" y="-244.8" font-family="Courier,monospace" font-size="14.00" fill="white"> &#160;&#160;&#160;&#160;&#160;&#160;&#160;&#160;&#160;&#160;&#160;</text>
<text text-anchor="middle" x="729.64" y="-262.59" font-family="Courier,monospace" font-size="14.00" fill="white">Eth0/0</text>
<text text-anchor="middle" x="706.03" y="-226.85" font-family="Courier,monospace" font-size="14.00" fill="white">Eth0/2</text>
</g>
</g>
</svg>
